<svg width="25" height="20" viewBox="0 0 487 315" fill="none" xmlns="http://www.w3.org/2000/svg">
<rect x="10" y="3" width="468" height="307" fill="#4867B7"/>
<mask id="mask0_6_42" style="mask-type:alpha" maskUnits="userSpaceOnUse" x="-17" y="-26" width="521" height="367">
<path d="M0 315L487 0M487 315L243.5 157.5L0 0" stroke="#F6F6F6" stroke-width="60"/>
</mask>
<g mask="url(#mask0_6_42)">
<rect x="10" y="2" width="468" height="309" fill="#F6F6F6"/>
</g>
<mask id="mask1_6_42" style="mask-type:alpha" maskUnits="userSpaceOnUse" x="-11" y="-16" width="509" height="347">
<path d="M0 315L487 0M487 315L243.5 157.5L0 0" stroke="#C05656" stroke-width="37"/>
</mask>
<g mask="url(#mask1_6_42)">
<rect x="10" y="2" width="468" height="309" fill="#C05656"/>
</g>
<rect x="10" y="119" width="468" height="73" fill="white"/>
<rect x="283" y="3" width="307" height="77" transform="rotate(90 283 3)" fill="white"/>
<rect x="10" y="129" width="468" height="53" fill="#C05656"/>
<rect x="272" y="3" width="307" height="55" transform="rotate(90 272 3)" fill="#C05656"/>
</svg>
