<?xml version="1.0" encoding="utf-8"?>
<!-- Generator: Adobe Illustrator 24.0.1, SVG Export Plug-In . SVG Version: 6.00 Build 0)  -->
<svg version="1.1" id="Capa_1" xmlns="http://www.w3.org/2000/svg" xmlns:xlink="http://www.w3.org/1999/xlink" x="0px" y="0px"
	 viewBox="0 0 324 324" style="enable-background:new 0 0 324 324;" xml:space="preserve">
<style type="text/css">
	.st0{opacity:0.5;}
	.st1{fill:#FFFFFF;}
	.st2{fill:#A9DAFF;enable-background:new    ;}
	.st3{fill:#0029FD;}
</style>
<title>Diccionario</title>
<g>
	<g id="Capa_2_1_">
		<g id="Capa_1-2">
			<g class="st0">
				<image style="overflow:visible;opacity:0.2;enable-background:new    ;" width="324" height="324" xlink:href="832C8BAF.png" >
				</image>
				<circle class="st1" cx="155" cy="155" r="142"/>
				<path class="st1" d="M155,18c75.7,0,137,61.3,137,137s-61.3,137-137,137S18,230.7,18,155S79.3,18,155,18 M155,8
					C73.8,8,8,73.8,8,155c0,39,15.5,76.4,43.1,103.9c56.9,58,149.9,58.8,207.9,2s58.8-149.9,2-207.9c-0.7-0.7-1.3-1.3-2-2
					C231.4,23.4,194,7.9,155,8z"/>
			</g>
			<circle class="st2" cx="155" cy="155" r="137"/>
			<g id="Capa_2-2">
				<g id="Capa_1-2-2">
					<rect x="207.3" y="154.7" class="st3" width="5.7" height="14.9"/>
					<rect x="207.3" y="128" class="st3" width="5.7" height="14.9"/>
					<path class="st3" d="M203.2,203.8v-97.5c-0.1-5.6-4.6-10.1-10.2-10.1h-91.3c-2.2,0-4,1.8-4,4v109.7c0,2.2,1.8,4,4,4H193
						C198.6,213.9,203.2,209.4,203.2,203.8C203.2,203.8,203.2,203.8,203.2,203.8z M122,203.7c0,1.1-0.9,2-2,2h-12.1
						c-1.1,0-2-0.9-2-2v-97.3c0-1.1,0.9-2,2-2H120c1.1,0,2,0.9,2,2V203.7z M195,203.7c0,1.1-0.9,2-2,2h-60.8c-1.1,0-2-0.9-2-2v-97.3
						c0-1.1,0.9-2,2-2H193c1.1,0,2,0.9,2,2V203.7z"/>
					<path class="st3" d="M148.3,160.1h-5.2l-0.9,2.9h-4l5.7-15.8h3.5l5.8,15.6h-4L148.3,160.1z M143.9,157h3.3l-1.7-5.4L143.9,157z
						"/>
					<path class="st3" d="M161.3,157.5h-6.4v-2.8h6.4V157.5z"/>
					<path class="st3" d="M169,160.1h7.4v2.9h-12.6v-2l7.5-10.7h-7.5v-2.9h12.1v1.9L169,160.1z"/>
					<path class="st3" d="M155.7,291.8v-8.4c5,0,9.9-0.3,14.9-0.8l1,8.4C166.3,291.6,161,291.8,155.7,291.8z M187.1,288.1l-1.9-8.4
						c12.2-2.9,23.8-7.5,34.6-13.8l4.2,7.2C212.5,279.9,200.1,285,187.1,288.1L187.1,288.1z M116.4,286.1
						c-5.1-1.5-10.1-3.3-14.9-5.4l3.3-7.7c4.6,2,9.2,3.7,14,5.1L116.4,286.1z M87.2,273.6c-11.5-6.7-22-14.9-31.1-24.5l6.1-5.5
						c8.6,9.1,18.4,16.8,29.2,23L87.2,273.6z M237.5,264.7l-5-6.7c4.1-3,7.9-6.2,11.6-9.6l5.7,6.1c-3.9,3.6-8.1,7-12.4,10.2
						L237.5,264.7z M45.9,236.9c-3-4.3-5.8-8.7-8.3-13.3l7.2-4.2c2.5,4.3,5.3,8.5,8.3,12.4L45.9,236.9z M274,223.4l-7.3-4.2
						c2.5-4.3,4.8-8.8,6.8-13.4l7.7,3.3C279.1,214,276.7,218.8,274,223.4z M286.6,194.2l-8.3-2.4c3.6-11.9,5.4-24.3,5.3-36.8
						l8.3-0.5v0.5C292.1,168.3,290.3,181.5,286.6,194.2z M22.5,186.8c-1.3-5.2-2.2-10.4-2.8-15.7l8.4-0.9c0.6,5,1.4,10,2.6,14.9
						L22.5,186.8z M18.7,155.3L18.7,155.3c0-13.2,1.9-26.3,5.6-39l8.4,2.4c-3.6,11.8-5.5,24-5.6,36.3L18.7,155.3z M283.1,139.6
						c-0.6-4.9-1.4-9.8-2.6-14.7l8.3-1.9c1.2,5.1,2.2,10.4,2.8,15.6L283.1,139.6z M37.4,104.4l-7.7-3.3c2.1-4.9,4.5-9.6,7.2-14.2
						l7.2,4.2C41.6,95.4,39.4,99.9,37.4,104.4z M266.5,90.4c-2.5-4.3-5.3-8.5-8.4-12.4l6.7-5c3.2,4.2,6.1,8.6,8.8,13.2L266.5,90.4z
						 M248.7,66.5c-8.7-9.2-18.7-17-29.7-23.3l4.2-7.2c11.6,6.7,22.2,15,31.5,24.7L248.7,66.5z M67.1,61.8l-5.8-6
						c3.8-3.7,7.9-7.1,12.2-10.3l5,6.7C74.5,55.1,70.7,58.3,67.1,61.8z M91,43.9l-4.2-7.2C98.3,30,110.7,25,123.6,21.9l1.9,8.4
						C113.4,33.1,101.8,37.7,91,43.9z M206,36.8c-4.6-1.9-9.2-3.6-14-5l2.3-8.3c5.1,1.5,10.1,3.3,14.9,5.3L206,36.8z M140.2,27.5
						l-1-8.3c5.3-0.6,10.6-0.9,15.9-0.9v8.3C150.1,26.6,145.2,26.9,140.2,27.5L140.2,27.5z"/>
				</g>
			</g>
		</g>
	</g>
</g>
</svg>
