<?xml version="1.0" encoding="utf-8"?>
<!-- Generator: Adobe Illustrator 24.0.1, SVG Export Plug-In . SVG Version: 6.00 Build 0)  -->
<svg version="1.1" id="Capa_1" xmlns="http://www.w3.org/2000/svg" xmlns:xlink="http://www.w3.org/1999/xlink" x="0px" y="0px"
	 viewBox="0 0 324 324" style="enable-background:new 0 0 324 324;" xml:space="preserve">
<style type="text/css">
	.st0{opacity:0.5;}
	.st1{fill:#FFFFFF;}
	.st2{fill:#A9DAFF;enable-background:new    ;}
	.st3{fill:#0029FD;}
</style>
<title>Dinero</title>
<g>
	<g id="Capa_2_1_">
		<g id="Capa_1-2">
			<g class="st0">
				<image style="overflow:visible;opacity:0.2;enable-background:new    ;" width="324" height="324" xlink:href="36A0EAEB.png" >
				</image>
				<circle class="st1" cx="155" cy="155" r="142"/>
				<path class="st1" d="M155,18c75.7,0,137,61.3,137,137s-61.3,137-137,137S18,230.7,18,155S79.3,18,155,18 M155,8
					C73.8,8,8,73.8,8,155c0,39,15.5,76.4,43.1,103.9c56.9,58,149.9,58.8,207.9,2s58.8-149.9,2-207.9c-0.7-0.7-1.3-1.3-2-2
					C231.4,23.4,194,7.9,155,8z"/>
			</g>
			<circle class="st2" cx="155" cy="155" r="137"/>
			<g id="Capa_2-2">
				<g id="Capa_1-2-2">
					<path class="st3" d="M181,162.6c-0.5-7.2-6.8-12.5-13.9-12c0,0-0.1,0-0.1,0h-24.2c-2.8,0-5-2.2-5-5s2.2-5,5-5h31.1v-8.2h-15
						v-12h-8v12.2h-8c-7.2,0-13,5.8-13,13c0,7.2,5.8,13,13,13h24c2.8,0,5,2.2,5,5s-2.2,5-5,5h-31.5v7.9h15v12h8.4v-12h8.2
						c7.2,0.6,13.4-4.8,14-11.9C181.1,164,181.1,163.3,181,162.6z"/>
					<path class="st3" d="M154.4,212.6c32.1,0,58.1-26,58.1-58.1s-26-58.1-58.1-58.1s-58.1,26-58.1,58.1
						C96.3,186.6,122.3,212.6,154.4,212.6L154.4,212.6z M154.4,104.4c27.7,0,50.1,22.4,50.1,50.1s-22.4,50.1-50.1,50.1h-0.1
						c-27.7,0-50.1-22.5-50-50.1S126.8,104.4,154.4,104.4z"/>
					<path class="st3" d="M154.6,291.8v-8.4c5,0,9.9-0.3,14.9-0.8l1,8.4C165.2,291.6,159.9,291.8,154.6,291.8z M186.1,288.1
						l-1.9-8.4c12.2-2.9,23.8-7.5,34.6-13.8l4.2,7.2C211.4,279.9,199,285,186.1,288.1L186.1,288.1z M115.4,286.1
						c-5.1-1.5-10.1-3.3-14.9-5.4l3.3-7.7c4.6,2,9.2,3.7,14,5.1L115.4,286.1z M86.1,273.6c-11.5-6.7-22-14.9-31.1-24.5l6.1-5.5
						c8.6,9.1,18.4,16.8,29.2,23L86.1,273.6z M236.4,264.7l-5-6.7c4.1-3,7.9-6.2,11.6-9.6l5.7,6.1c-3.9,3.7-8.1,7.1-12.4,10.2
						L236.4,264.7z M44.8,236.9c-3-4.3-5.8-8.7-8.4-13.3l7.2-4.2c2.6,4.3,5.3,8.5,8.4,12.4L44.8,236.9z M272.9,223.4l-7.3-4.2
						c2.5-4.3,4.8-8.8,6.8-13.4l7.7,3.3C278,214,275.6,218.8,272.9,223.4z M285.5,194.2l-8.4-2.4c3.6-11.9,5.4-24.3,5.3-36.8
						l8.4-0.5v0.5C291,168.3,289.2,181.5,285.5,194.2z M21.4,186.8c-1.3-5.2-2.2-10.4-2.8-15.7l8.3-0.9c0.6,5,1.4,10,2.6,14.9
						L21.4,186.8z M17.6,155.3L17.6,155.3c0-13.2,1.9-26.3,5.6-39l8.4,2.4c-3.6,11.8-5.4,24-5.5,36.3L17.6,155.3z M282,139.6
						c-0.6-4.9-1.4-9.8-2.6-14.7l8.4-1.9c1.2,5.1,2.2,10.4,2.8,15.6L282,139.6z M36.3,104.4l-7.7-3.3c2.1-4.9,4.5-9.6,7.2-14.2
						l7.2,4.2C40.5,95.4,38.3,99.9,36.3,104.4z M265.4,90.4c-2.5-4.3-5.3-8.5-8.4-12.4l6.7-5c3.2,4.2,6.2,8.6,8.9,13.2L265.4,90.4z
						 M247.6,66.5c-8.7-9.2-18.7-17-29.6-23.3l4.2-7.2c11.6,6.7,22.2,15,31.5,24.7L247.6,66.5z M66,61.8l-5.8-6
						c3.9-3.7,7.9-7.1,12.2-10.3l5,6.7C73.4,55.1,69.6,58.3,66,61.8z M89.9,43.9l-4.2-7.2C97.2,30,109.6,25,122.5,21.9l1.9,8.4
						C112.3,33.1,100.7,37.7,89.9,43.9z M204.9,36.8c-4.6-1.9-9.2-3.6-14-5l2.3-8.3c5.1,1.5,10.1,3.3,14.9,5.3L204.9,36.8z
						 M139.1,27.5l-1-8.3c5.3-0.6,10.6-0.9,15.9-0.9v8.3C149,26.6,144.1,26.9,139.1,27.5L139.1,27.5z"/>
				</g>
			</g>
		</g>
	</g>
</g>
</svg>
