<?xml version="1.0" encoding="utf-8"?>
<!-- Generator: Adobe Illustrator 24.0.1, SVG Export Plug-In . SVG Version: 6.00 Build 0)  -->
<svg version="1.1" id="Capa_1" xmlns="http://www.w3.org/2000/svg" xmlns:xlink="http://www.w3.org/1999/xlink" x="0px" y="0px"
	 viewBox="0 0 324 324" style="enable-background:new 0 0 324 324;" xml:space="preserve">
<style type="text/css">
	.st0{opacity:0.5;}
	.st1{fill:#FFFFFF;}
	.st2{fill:#A9DAFF;enable-background:new    ;}
	.st3{fill:#0029FD;}
</style>
<title>Idea</title>
<g>
	<g id="Capa_2_1_">
		<g id="Capa_1-2">
			<g class="st0">
				<image style="overflow:visible;opacity:0.2;enable-background:new    ;" width="324" height="324" xlink:href="49AD7F96.png" >
				</image>
				<circle class="st1" cx="155" cy="155" r="142"/>
				<path class="st1" d="M155,18c75.7,0,137,61.3,137,137s-61.3,137-137,137S18,230.7,18,155S79.3,18,155,18 M155,8
					C73.8,8,8,73.8,8,155c0,39,15.5,76.4,43.1,103.9c56.9,58,149.9,58.8,207.9,2s58.8-149.9,2-207.9c-0.7-0.7-1.3-1.3-2-2
					C231.4,23.4,194,7.9,155,8z"/>
			</g>
			<circle class="st2" cx="155" cy="155" r="137"/>
			<g id="Capa_2-2">
				<g id="Capa_1-2-2">
					<path class="st3" d="M175.2,190.8c0-7.5,6-13.8,10.4-18.3c1.3-1.3,2.4-2.4,3.1-3.4c15.4-19.3,12.3-47.4-7-62.8
						s-47.4-12.3-62.8,7c-12.8,16-13.1,38.7-0.6,55h0.6l0.6,0.8c0.8,1,2,2.3,3.3,3.7c4.3,4.5,10.1,10.6,10.5,17.9v14.7
						c0,5.3,4.3,9.7,9.7,9.7h22.5c5.3,0,9.7-4.3,9.7-9.7L175.2,190.8z M167.8,207.4h-27.3v-9.9h27.3V207.4z M167.8,188.2l-0.3,1.7
						h-9.7v-29.2h-7.3v29.2h-9.8l-0.2-1.7c-1-7-4.3-13.4-9.4-18.3l-5.5-5.9c-12.8-15.9-10.3-39.3,5.7-52.1s39.3-10.3,52.1,5.7
						c10.9,13.6,10.9,32.9,0,46.4l-0.1,0.1l-5.4,5.8C172.5,174.7,168.9,181.1,167.8,188.2L167.8,188.2z"/>
					<path class="st3" d="M154.9,291.8v-8.4c5,0,9.9-0.3,14.9-0.8l1,8.4C165.5,291.6,160.2,291.8,154.9,291.8z M186.3,288.1
						l-1.9-8.4c12.2-2.9,23.8-7.5,34.6-13.8l4.2,7.2C211.7,279.9,199.3,285,186.3,288.1L186.3,288.1z M115.6,286.1
						c-5.1-1.5-10.1-3.3-14.9-5.4l3.3-7.7c4.6,2,9.2,3.7,14,5.1L115.6,286.1z M86.4,273.6c-11.5-6.7-22-14.9-31.1-24.5l6.1-5.5
						c8.6,9.1,18.4,16.8,29.2,23L86.4,273.6z M236.7,264.7l-5-6.7c4.1-3,7.9-6.2,11.6-9.6l5.7,6.1c-3.9,3.6-8.1,7-12.4,10.2
						L236.7,264.7z M45.1,236.9c-3-4.3-5.8-8.7-8.3-13.3l7.2-4.2c2.5,4.3,5.3,8.5,8.3,12.4L45.1,236.9z M273.2,223.4l-7.2-4.2
						c2.5-4.3,4.8-8.8,6.8-13.4l7.7,3.3C278.3,214,275.9,218.8,273.2,223.4z M285.8,194.2l-8.4-2.4c3.6-11.9,5.4-24.3,5.3-36.8
						l8.3-0.5v0.5C291.3,168.3,289.5,181.5,285.8,194.2L285.8,194.2z M21.6,186.8c-1.3-5.2-2.2-10.4-2.8-15.7l8.4-0.9
						c0.6,5,1.4,10,2.6,14.9L21.6,186.8z M17.9,155.3L17.9,155.3c0-13.2,1.9-26.3,5.6-39l8.3,2.4c-3.6,11.8-5.5,24-5.6,36.3
						L17.9,155.3z M282.2,139.6c-0.6-4.9-1.4-9.8-2.6-14.7l8.3-1.9c1.2,5.1,2.2,10.4,2.8,15.6L282.2,139.6z M36.6,104.4l-7.7-3.3
						c2.1-4.9,4.5-9.6,7.2-14.2l7.2,4.2C40.8,95.4,38.6,99.9,36.6,104.4z M265.7,90.4c-2.5-4.3-5.3-8.5-8.4-12.4l6.7-5
						c3.2,4.2,6.1,8.6,8.8,13.2L265.7,90.4z M247.9,66.5c-8.7-9.2-18.7-17-29.6-23.3l4.2-7.2c11.6,6.7,22.2,15,31.5,24.7L247.9,66.5
						z M66.3,61.8l-5.8-6c3.8-3.7,7.9-7.1,12.2-10.3l5,6.7C73.7,55.1,69.9,58.3,66.3,61.8z M90.2,43.9L86,36.7
						C97.5,30,109.9,25,122.8,21.9l1.9,8.4C112.6,33.1,101,37.7,90.2,43.9z M205.2,36.8c-4.6-1.9-9.2-3.6-14-5l2.3-8.3
						c5.1,1.5,10.1,3.3,14.9,5.3L205.2,36.8z M139.4,27.5l-1-8.3c5.3-0.6,10.6-0.9,15.9-0.9v8.3C149.3,26.6,144.3,26.9,139.4,27.5
						L139.4,27.5z"/>
				</g>
			</g>
		</g>
	</g>
</g>
</svg>
