<?xml version="1.0" encoding="utf-8"?>
<!-- Generator: Adobe Illustrator 24.0.1, SVG Export Plug-In . SVG Version: 6.00 Build 0)  -->
<svg version="1.1" id="Capa_1" xmlns="http://www.w3.org/2000/svg" xmlns:xlink="http://www.w3.org/1999/xlink" x="0px" y="0px"
	 viewBox="0 0 324 324" style="enable-background:new 0 0 324 324;" xml:space="preserve">
<style type="text/css">
	.st0{opacity:0.5;}
	.st1{fill:#FFFFFF;}
	.st2{fill:#A9DAFF;enable-background:new    ;}
	.st3{fill:#0029FD;}
</style>
<title>Lego</title>
<g>
	<g id="Capa_2_1_">
		<g id="Capa_1-2">
			<g class="st0">
				<image style="overflow:visible;opacity:0.2;enable-background:new    ;" width="324" height="324" xlink:href="923FFC90.png" >
				</image>
				<circle class="st1" cx="155" cy="155" r="142"/>
				<path class="st1" d="M155,18c75.7,0,137,61.3,137,137s-61.3,137-137,137S18,230.7,18,155S79.3,18,155,18 M155,8
					C73.8,8,8,73.8,8,155c0,39,15.5,76.4,43.1,103.9c56.9,58,149.9,58.8,207.9,2s58.8-149.9,2-207.9c-0.7-0.7-1.3-1.3-2-2
					C231.4,23.4,194,7.9,155,8z"/>
			</g>
			<circle class="st2" cx="155" cy="155" r="137"/>
			<path class="st3" d="M155.6,291.8v-8.4c5,0,9.9-0.3,14.9-0.8l1,8.4C166.2,291.6,160.9,291.8,155.6,291.8z M187.1,288.1l-1.9-8.4
				c12.2-2.9,23.8-7.5,34.6-13.8l4.2,7.2C212.5,280,200,285,187.1,288.1L187.1,288.1z M116.4,286.1c-5.1-1.5-10.1-3.3-14.9-5.4
				l3.3-7.7c4.6,2,9.2,3.7,14,5.1L116.4,286.1z M87.2,273.6c-11.5-6.7-22-14.9-31.2-24.5l6.1-5.5c8.6,9.1,18.4,16.8,29.2,23
				L87.2,273.6z M237.4,264.7l-5-6.7c4.1-3,7.9-6.2,11.6-9.6l5.7,6.1c-3.9,3.7-8.1,7.1-12.4,10.2L237.4,264.7z M45.8,236.9
				c-3-4.3-5.8-8.7-8.4-13.3l7.2-4.2c2.5,4.3,5.3,8.5,8.3,12.4L45.8,236.9z M274,223.4l-7.3-4.2c2.5-4.3,4.8-8.8,6.8-13.4l7.7,3.3
				C279.1,214,276.7,218.8,274,223.4z M286.6,194.2l-8.4-2.4c3.6-11.9,5.3-24.3,5.3-36.8l8.4-0.5v0.5
				C292,168.3,290.2,181.5,286.6,194.2L286.6,194.2z M22.4,186.8c-1.2-5.2-2.2-10.4-2.8-15.7l8.3-0.9c0.6,5,1.4,10,2.6,14.9
				L22.4,186.8z M18.6,155.3L18.6,155.3c0-13.2,1.9-26.3,5.6-39l8.4,2.4c-3.6,11.8-5.5,24-5.6,36.3L18.6,155.3z M283,139.6
				c-0.6-4.9-1.4-9.8-2.6-14.7l8.4-1.9c1.2,5.1,2.2,10.4,2.8,15.6L283,139.6z M37.3,104.4l-7.7-3.3c2.1-4.9,4.5-9.6,7.2-14.2
				l7.2,4.2C41.5,95.4,39.3,99.9,37.3,104.4z M266.5,90.4c-2.5-4.3-5.3-8.5-8.4-12.4l6.7-5c3.2,4.2,6.2,8.6,8.9,13.2L266.5,90.4z
				 M248.6,66.5c-8.7-9.2-18.6-17-29.6-23.3l4.2-7.2c11.6,6.7,22.2,15,31.5,24.7L248.6,66.5z M67,61.8l-5.8-6
				c3.9-3.7,7.9-7.1,12.2-10.3l5,6.7C74.4,55.1,70.6,58.3,67,61.8z M90.9,43.9l-4.2-7.2C98.2,30,110.6,25,123.6,21.9l1.9,8.4
				C113.4,33.1,101.7,37.7,90.9,43.9z M205.9,36.8c-4.6-1.9-9.2-3.6-14-5l2.3-8.3c5.1,1.5,10.1,3.3,14.9,5.3L205.9,36.8z
				 M140.1,27.5l-1-8.3c5.3-0.6,10.6-0.9,15.9-0.9v8.3C150,26.6,145.1,26.9,140.1,27.5L140.1,27.5z"/>
			<path class="st3" d="M205.5,213.8H105.2c-5.1-1.7-6.7-3.8-6.7-9.3c0-12,0-24.1,0-36.1c0.2-1.5,0.5-2.9,0.9-4.3
				c0.1-0.4,0.1-0.8,0-1.3c-0.4-1.2-0.7-2.4-0.9-3.6c-0.1-12.8-0.1-25.6,0-38.4c0-2.6,1.3-5,3.5-6.4c0.5-0.3,0.8-0.9,0.8-1.5
				c0-2.9,0-5.8,0-8.6c0-5.1,3.3-8.2,8.3-8.3c3.9,0,7.8,0,11.7,0c4.9,0,8.1,3.3,8.2,8.2c0,2.3,0,4.6,0,6.9v2h10.2c0-3,0-5.9,0-8.7
				c0-5.1,3.3-8.3,8.4-8.3c4,0,8,0,12,0c4.3-0.1,7.8,3.2,7.9,7.5c0,0.1,0,0.3,0,0.4c0,2.2,0,4.4,0,6.6v2.5h10.1c0-2.9,0-5.8,0-8.6
				c0-5.1,3.3-8.3,8.3-8.3h11.5c5.2,0,8.4,3.2,8.4,8.4c0,2.9,0,5.8,0,8.6c0,0.4,0.2,0.8,0.5,1.1c2.5,1.5,3.9,4.3,3.8,7.2
				c0,12.4,0,24.8,0,37.3c-0.2,1.5-0.5,2.9-1,4.3c-0.1,0.3-0.1,0.7,0,1.1c0.5,1.4,0.8,2.8,0.9,4.2c0.1,12.5,0.1,24.9,0,37.4
				c0,1.4-0.3,2.8-0.9,4.1C210.1,212.1,207.9,213.2,205.5,213.8z M155.2,160h48c1.9,0,1.9,0,1.9-1.9v-36.2c0-1.8-0.1-1.9-1.9-1.9
				h-96.1c-1.8,0-1.8,0.1-1.8,1.8v36.4c0,1.9,0,1.9,1.9,1.9H155.2z M155.3,206.9h48c1.8,0,1.8-0.1,1.8-1.8c0-12.1,0-24.2,0-36.3
				c0-1.8-0.1-1.9-1.9-1.9h-96.1c-1.8,0-1.8,0-1.8,1.8v36.4c0,1.9,0,1.9,1.9,1.9L155.3,206.9z M186.5,112.9h14.4c0-3.1,0-6.1,0-9
				c-0.1-0.5-0.5-0.9-1-1c-4.1-0.1-8.3-0.1-12.4,0c-0.5,0.1-0.8,0.5-1,0.9C186.4,106.9,186.5,109.9,186.5,112.9L186.5,112.9z
				 M148,112.9h14.4v-9c0-0.7-0.4-1-1.1-1c-4.1,0-8.2,0-12.3,0c-0.4,0-1,0.6-1,0.9C148,106.9,148.1,109.9,148,112.9L148,112.9z
				 M124,112.9c0-3.1,0-6,0-8.9c0-0.9-0.4-1.2-1.3-1.2c-4,0-7.9,0-11.8,0c-1,0-1.3,0.5-1.3,1.4c0,2.7,0,5.3,0,7.9
				c0,0.3,0,0.5,0.1,0.8L124,112.9z"/>
		</g>
	</g>
</g>
</svg>
