<?xml version="1.0" encoding="utf-8"?>
<!-- Generator: Adobe Illustrator 23.0.2, SVG Export Plug-In . SVG Version: 6.00 Build 0)  -->
<svg version="1.1" id="Capa_1" xmlns="http://www.w3.org/2000/svg" xmlns:xlink="http://www.w3.org/1999/xlink" x="0px" y="0px"
	 viewBox="0 0 884.461 415.281" enable-background="new 0 0 884.461 415.281" xml:space="preserve">
<g>
	<g>
		<g>
			<path fill="#A0A0A0" d="M475.749,257.057C267.658,359.079,0.251,409.256,4.872,408.577c0,0,23.212-0.509,61.036-3.388
				c41.317-3.146,98.568-6.664,164.913-15.291c129.025-16.778,283.097-36.417,371.94-67.908c138.16-48.971,274.722-120,274.722-120
				V9.881C877.483,9.881,762.282,116.578,475.749,257.057z"/>
		</g>
		<path d="M877.483,187.547v220.92l-872.788,0.11c0,0,325.86-10.75,574.473-92.389C747.704,260.845,877.483,187.547,877.483,187.547
			z"/>
	</g>
	<g opacity="0.8">
		<g>
			
				<line fill="none" stroke="#C9C9C9" stroke-width="0.75" stroke-miterlimit="10" x1="395.84" y1="295.562" x2="395.84" y2="297.562"/>
			
				<line fill="none" stroke="#C9C9C9" stroke-width="0.75" stroke-miterlimit="10" stroke-dasharray="4.039,4.039" x1="395.84" y1="301.601" x2="395.84" y2="404.596"/>
			
				<line fill="none" stroke="#C9C9C9" stroke-width="0.75" stroke-miterlimit="10" x1="395.84" y1="406.615" x2="395.84" y2="408.615"/>
		</g>
	</g>
	<g>
		<circle fill="#FFFFFF" cx="395.84" cy="363.139" r="6.706"/>
		<circle cx="395.84" cy="363.139" r="2.809"/>
		<circle fill="#FFFFFF" cx="395.84" cy="292.753" r="6.706"/>
		<circle fill="#A0A0A0" cx="395.84" cy="292.753" r="2.809"/>
	</g>
</g>
</svg>
