<?xml version="1.0" encoding="utf-8"?>
<!-- Generator: Adobe Illustrator 23.0.2, SVG Export Plug-In . SVG Version: 6.00 Build 0)  -->
<svg version="1.1" id="Capa_1" xmlns="http://www.w3.org/2000/svg" xmlns:xlink="http://www.w3.org/1999/xlink" x="0px" y="0px"
	 viewBox="0 0 884.461 415.281" enable-background="new 0 0 884.461 415.281" xml:space="preserve">
<g>
	<g>
		<g>
			<path fill="#A0A0A0" d="M475.749,257.057C267.658,359.079,0.251,409.256,4.872,408.577c0,0,23.212-0.509,61.036-3.388
				c41.317-3.146,98.568-6.664,164.913-15.291c129.025-16.778,283.097-36.417,371.94-67.908c138.16-48.971,274.722-120,274.722-120
				V9.881C877.483,9.881,762.282,116.578,475.749,257.057z"/>
		</g>
		<path d="M877.483,187.547v220.92l-872.788,0.11c0,0,325.86-10.75,574.473-92.389C747.704,260.845,877.483,187.547,877.483,187.547
			z"/>
	</g>
	<g opacity="0.8">
		<g>
			
				<line fill="none" stroke="#C9C9C9" stroke-width="0.75" stroke-miterlimit="10" x1="486.051" y1="256.615" x2="486.051" y2="258.615"/>
			
				<line fill="none" stroke="#C9C9C9" stroke-width="0.75" stroke-miterlimit="10" stroke-dasharray="3.9373,3.9373" x1="486.051" y1="262.552" x2="486.051" y2="402.327"/>
			
				<line fill="none" stroke="#C9C9C9" stroke-width="0.75" stroke-miterlimit="10" x1="486.051" y1="404.296" x2="486.051" y2="406.296"/>
		</g>
	</g>
	<g>
		<circle fill="#FFFFFF" cx="486.051" cy="342.834" r="6.706"/>
		<circle cx="486.051" cy="342.834" r="2.809"/>
		<circle fill="#FFFFFF" cx="486.051" cy="251.226" r="6.706"/>
		<circle fill="#A0A0A0" cx="486.051" cy="251.226" r="2.809"/>
	</g>
</g>
</svg>
