<svg id="Capa_1" data-name="Capa 1" xmlns="http://www.w3.org/2000/svg" viewBox="0 0 884.46 415.28"><defs><style>.cls-1{fill:#73a3ea;}.cls-2{fill:#004fff;}.cls-3{opacity:0.8;}.cls-4,.cls-5{fill:none;stroke:#c9c9c9;stroke-miterlimit:10;stroke-width:0.75px;}.cls-5{stroke-dasharray:4.04 4.04;}.cls-6{fill:#fff;}</style></defs><title>Graficas - ahorro nuevas</title><path class="cls-1" d="M475.75,257.06C267.66,359.08.25,409.26,4.87,408.58c0,0,23.21-.51,61-3.39,41.31-3.15,98.57-6.67,164.91-15.29,129-16.78,283.1-36.42,371.94-67.91,138.16-49,274.72-120,274.72-120V9.88S762.28,116.58,475.75,257.06Z"/><path class="cls-2" d="M877.48,187.55V408.47L4.7,408.58s325.86-10.75,574.47-92.39C747.7,260.84,877.48,187.55,877.48,187.55Z"/><g class="cls-3"><line class="cls-4" x1="848.18" y1="29.31" x2="848.18" y2="31.31"/><line class="cls-5" x1="848.18" y1="35.35" x2="848.18" y2="404.6"/><line class="cls-4" x1="848.18" y1="406.62" x2="848.18" y2="408.62"/></g><circle class="cls-6" cx="848.18" cy="202.53" r="6.71"/><circle class="cls-2" cx="848.18" cy="202.53" r="2.81"/><circle class="cls-6" cx="848.18" cy="34.24" r="6.71"/><circle class="cls-1" cx="848.18" cy="34.24" r="2.81"/></svg>