<svg width="30" height="30" viewBox="0 0 29 29" fill="none" xmlns="http://www.w3.org/2000/svg">
<g opacity="0.7" clip-path="url(#clip0_929_1491)">
<path d="M14.5 0C11.6322 0 8.82876 0.850411 6.44424 2.44369C4.05973 4.03697 2.20123 6.30157 1.10375 8.9511C0.00628261 11.6006 -0.280866 14.5161 0.27862 17.3288C0.838106 20.1416 2.2191 22.7252 4.24696 24.7531C6.27482 26.7809 8.85848 28.1619 11.6712 28.7214C14.4839 29.2809 17.3994 28.9937 20.0489 27.8963C22.6985 26.7988 24.9631 24.9403 26.5563 22.5558C28.1496 20.1713 29 17.3678 29 14.5C28.9959 10.6556 27.4669 6.96987 24.7486 4.25148C22.0302 1.53309 18.3444 0.0040974 14.5 0V0ZM17.9093 9.51962C17.9093 9.56889 17.8897 9.61613 17.8549 9.65097C17.82 9.6858 17.7728 9.70537 17.7235 9.70537H16.253C16.0796 9.70537 15.9132 9.77427 15.7906 9.89692C15.6679 10.0196 15.599 10.1859 15.599 10.3594V11.9073H17.6926C17.7182 11.9071 17.7435 11.9124 17.767 11.9227C17.7904 11.933 17.8114 11.9482 17.8285 11.9672C17.8457 11.9862 17.8587 12.0086 17.8666 12.0329C17.8745 12.0573 17.8772 12.083 17.8745 12.1085L17.6926 14.2794C17.6887 14.326 17.6674 14.3693 17.633 14.4009C17.5986 14.4324 17.5535 14.4499 17.5068 14.4497H15.599V21.6707C15.598 21.7196 15.5782 21.7663 15.5435 21.8009C15.5089 21.8356 15.4622 21.8554 15.4133 21.8564H12.7702C12.7213 21.8554 12.6746 21.8356 12.64 21.8009C12.6054 21.7663 12.5855 21.7196 12.5845 21.6707V14.442H11.2688C11.2195 14.442 11.1723 14.4224 11.1374 14.3876C11.1026 14.3527 11.083 14.3055 11.083 14.2562V12.0853C11.084 12.0363 11.1039 11.9897 11.1385 11.955C11.1731 11.9204 11.2198 11.9005 11.2688 11.8995H12.5845V9.80599C12.5845 9.4589 12.6528 9.1152 12.7857 8.79453C12.9185 8.47387 13.1132 8.1825 13.3586 7.93707C13.8543 7.4414 14.5266 7.16294 15.2275 7.16294H17.7235C17.7725 7.16393 17.8192 7.18381 17.8538 7.21844C17.8884 7.25306 17.9083 7.29973 17.9093 7.34868V9.51962Z" fill="#F6F6F6"/>
</g>
<defs>
<clipPath id="clip0_929_1491">
<rect width="29" height="29" fill="white"/>
</clipPath>
</defs>
</svg>
