<svg width="30" height="30" viewBox="0 0 30 29" fill="none" xmlns="http://www.w3.org/2000/svg">
<g opacity="0.7" clip-path="url(#clip0_929_1495)">
<path d="M14.8487 0C11.9808 0 9.17739 0.850411 6.79288 2.44369C4.40836 4.03697 2.54986 6.30157 1.45239 8.9511C0.354915 11.6006 0.0677668 14.5161 0.627253 17.3288C1.18674 20.1416 2.56773 22.7252 4.59559 24.7531C6.62346 26.7809 9.20711 28.1619 12.0198 28.7214C14.8326 29.2809 17.748 28.9937 20.3976 27.8963C23.0471 26.7988 25.3117 24.9403 26.905 22.5558C28.4983 20.1713 29.3487 17.3678 29.3487 14.5C29.3446 10.6556 27.8156 6.96987 25.0972 4.25148C22.3788 1.53309 18.693 0.0040974 14.8487 0V0ZM22.2322 17.5378C22.2322 18.7181 21.7633 19.85 20.9287 20.6846C20.0941 21.5191 18.9622 21.988 17.7819 21.988H11.7103C10.53 21.988 9.39806 21.5191 8.56348 20.6846C7.7289 19.85 7.26004 18.7181 7.26004 17.5378V11.4622C7.26004 10.282 7.7289 9.15004 8.56348 8.31546C9.39806 7.48088 10.53 7.01202 11.7103 7.01202H17.7819C18.9622 7.01202 20.0941 7.48088 20.9287 8.31546C21.7633 9.15004 22.2322 10.282 22.2322 11.4622V17.5378Z" fill="#F6F6F6"/>
<path d="M14.8482 12.0581C14.389 12.0581 13.9401 12.1943 13.5583 12.4494C13.1764 12.7045 12.8788 13.0672 12.7031 13.4914C12.5274 13.9157 12.4814 14.3825 12.571 14.8329C12.6606 15.2833 12.8817 15.697 13.2064 16.0218C13.5311 16.3465 13.9449 16.5676 14.3953 16.6572C14.8457 16.7468 15.3125 16.7008 15.7368 16.5251C16.161 16.3493 16.5237 16.0517 16.7788 15.6699C17.0339 15.2881 17.1701 14.8392 17.1701 14.38C17.1701 13.7642 16.9255 13.1736 16.49 12.7382C16.0546 12.3027 15.464 12.0581 14.8482 12.0581Z" fill="#F6F6F6"/>
<path d="M17.716 8.47461H11.7759C10.9651 8.47461 10.1875 8.7967 9.61416 9.37002C9.04084 9.94334 8.71875 10.7209 8.71875 11.5317V17.4679C8.71875 18.2787 9.04084 19.0563 9.61416 19.6297C10.1875 20.203 10.9651 20.5251 11.7759 20.5251H17.716C18.5268 20.5251 19.3043 20.203 19.8777 19.6297C20.451 19.0563 20.7731 18.2787 20.7731 17.4679V11.5317C20.7731 10.7209 20.451 9.94334 19.8777 9.37002C19.3043 8.7967 18.5268 8.47461 17.716 8.47461ZM14.8485 18.0445C14.1267 18.0445 13.4212 17.8305 12.8211 17.4295C12.221 17.0286 11.7532 16.4586 11.477 15.7918C11.2008 15.125 11.1286 14.3913 11.2694 13.6834C11.4102 12.9756 11.7577 12.3253 12.2681 11.815C12.7784 11.3046 13.4287 10.9571 14.1365 10.8163C14.8444 10.6755 15.5781 10.7477 16.2449 11.0239C16.9117 11.3001 17.4817 11.7679 17.8826 12.368C18.2836 12.9681 18.4976 13.6736 18.4976 14.3954C18.4966 15.3629 18.1118 16.2905 17.4277 16.9746C16.7436 17.6587 15.816 18.0435 14.8485 18.0445ZM18.7182 11.3692C18.5457 11.37 18.3768 11.3194 18.233 11.2241C18.0893 11.1287 17.9771 10.9927 17.9107 10.8335C17.8443 10.6742 17.8267 10.4988 17.8602 10.3296C17.8937 10.1603 17.9767 10.0048 18.0987 9.88283C18.2207 9.76083 18.3762 9.67782 18.5454 9.64435C18.7147 9.61088 18.8901 9.62845 19.0493 9.69483C19.2086 9.76121 19.3445 9.87341 19.4399 10.0172C19.5353 10.161 19.5858 10.3298 19.5851 10.5024C19.5845 10.6167 19.5615 10.7298 19.5173 10.8353C19.4731 10.9407 19.4085 11.0364 19.3273 11.1169C19.2461 11.1974 19.1498 11.2611 19.044 11.3044C18.9381 11.3477 18.8248 11.3697 18.7105 11.3692H18.7182Z" fill="#F6F6F6"/>
</g>
<defs>
<clipPath id="clip0_929_1495">
<rect width="29" height="29" fill="white" transform="translate(0.348633)"/>
</clipPath>
</defs>
</svg>
