<svg width="30" height="30" viewBox="0 0 30 29" fill="none" xmlns="http://www.w3.org/2000/svg">
<g opacity="0.7" clip-path="url(#clip0_929_1501)">
<path d="M15.1973 0C12.3295 0 9.52602 0.850411 7.14151 2.44369C4.75699 4.03697 2.89849 6.30157 1.80102 8.9511C0.703548 11.6006 0.4164 14.5161 0.975886 17.3288C1.53537 20.1416 2.91636 22.7252 4.94423 24.7531C6.97209 26.7809 9.55575 28.1619 12.3685 28.7214C15.1812 29.2809 18.0967 28.9937 20.7462 27.8963C23.3957 26.7988 25.6603 24.9403 27.2536 22.5558C28.8469 20.1713 29.6973 17.3678 29.6973 14.5C29.6932 10.6556 28.1642 6.96987 25.4458 4.25148C22.7274 1.53309 19.0417 0.0040974 15.1973 0V0ZM7.6048 10.4484C7.74727 9.96572 8.04546 9.5438 8.45287 9.24839C8.86028 8.95299 9.35399 8.80072 9.85701 8.81533H20.5337C20.9575 8.79845 21.3774 8.90222 21.7446 9.11458C22.1118 9.32694 22.4112 9.63917 22.6079 10.015C22.6814 10.1504 22.724 10.3013 22.7859 10.4445C22.8478 10.5877 22.7859 10.6186 22.693 10.6844C21.1245 11.6364 19.5559 12.5935 17.9874 13.5558L15.3211 15.185C15.2897 15.2114 15.25 15.2259 15.2089 15.2259C15.1678 15.2259 15.1281 15.2114 15.0967 15.185L7.69381 10.6844C7.67131 10.6762 7.65085 10.6632 7.63382 10.6464C7.61679 10.6295 7.6036 10.6092 7.59515 10.5868C7.5867 10.5644 7.58319 10.5404 7.58486 10.5165C7.58652 10.4926 7.59333 10.4694 7.6048 10.4484ZM22.8981 18.1879C22.8594 18.3388 22.8285 18.4897 22.7782 18.6329C22.6274 19.0933 22.332 19.4927 21.936 19.7716C21.5399 20.0505 21.0644 20.194 20.5801 20.1808C16.989 20.1808 13.3991 20.1808 9.81057 20.1808C9.28141 20.1938 8.76463 20.0197 8.35123 19.6891C7.93784 19.3585 7.65433 18.8927 7.55063 18.3736C7.51649 18.2173 7.49962 18.0577 7.50032 17.8977C7.50032 15.9834 7.50032 14.0679 7.50032 12.1511C7.50032 12.1201 7.50032 12.093 7.50032 12.0427C7.56224 12.0775 7.61641 12.1046 7.66285 12.1356C9.98471 13.5519 12.3066 14.9708 14.6284 16.3923C14.7935 16.5077 14.9901 16.5696 15.1915 16.5696C15.3929 16.5696 15.5894 16.5077 15.7545 16.3923C18.0764 14.9631 20.4111 13.5442 22.7588 12.1356L22.902 12.0543L22.8981 18.1879Z" fill="#F6F6F6"/>
</g>
<defs>
<clipPath id="clip0_929_1501">
<rect width="29" height="29" fill="white" transform="translate(0.697266)"/>
</clipPath>
</defs>
</svg>
