<?xml version="1.0" encoding="utf-8"?>
<!-- Generator: Adobe Illustrator 24.0.1, SVG Export Plug-In . SVG Version: 6.00 Build 0)  -->
<svg version="1.1" id="Capa_1" xmlns="http://www.w3.org/2000/svg" xmlns:xlink="http://www.w3.org/1999/xlink" x="0px" y="0px"
	 viewBox="0 0 24 24" style="enable-background:new 0 0 24 24;" xml:space="preserve">
<style type="text/css">
	.st0{fill:#0029FD;}
</style>
<path class="st0" d="M5.5,4.4C7.3,2.9,9.6,2,12,2c5.5,0,10,4.5,10,10c0,2.1-0.7,4.1-1.8,5.7L17,12h3c0-4.4-3.6-8-8-8
	C9.9,4,7.9,4.8,6.5,6.2C6.5,6.2,5.5,4.4,5.5,4.4z M18.5,19.6C16.7,21.1,14.4,22,12,22C6.5,22,2,17.5,2,12c0-2.1,0.7-4.1,1.8-5.7
	L7,12H4c0,4.4,3.6,8,8,8c2.1,0,4.1-0.8,5.5-2.2L18.5,19.6z"/>
</svg>
