<svg width="30" height="30" viewBox="0 0 30 29" fill="none" xmlns="http://www.w3.org/2000/svg">
<g opacity="0.7" clip-path="url(#clip0_929_1505)">
<path d="M14.5469 0C11.6791 0 8.87563 0.850411 6.49112 2.44369C4.1066 4.03697 2.2481 6.30157 1.15063 8.9511C0.0531576 11.6006 -0.233991 14.5161 0.325495 17.3288C0.884981 20.1416 2.26597 22.7252 4.29384 24.7531C6.3217 26.7809 8.90535 28.1619 11.7181 28.7214C14.5308 29.2809 17.4463 28.9937 20.0958 27.8963C22.7453 26.7988 25.0099 24.9403 26.6032 22.5558C28.1965 20.1713 29.0469 17.3678 29.0469 14.5C29.0428 10.6556 27.5138 6.96987 24.7954 4.25148C22.077 1.53309 18.3913 0.0040974 14.5469 0V0ZM22.0349 9.84468C22.0225 9.93149 21.9863 10.0132 21.9304 10.0807C21.5844 10.5512 21.1726 10.9696 20.7076 11.3229C20.6418 11.3732 20.5257 11.4274 20.5257 11.5242C20.5257 13.9853 19.8988 16.4465 18.1032 18.2343C15.8162 20.5098 12.3837 21.1251 9.33432 20.2814C8.74602 20.1191 8.17755 19.892 7.63936 19.6042C7.45751 19.5087 7.28057 19.4041 7.1092 19.2908C7.06664 19.256 7.03181 19.225 7.07051 19.2018C7.1092 19.1786 7.13629 19.1786 7.27173 19.2018C8.13013 19.2746 8.99419 19.1638 9.80643 18.8767C10.2515 18.7219 11.2034 18.4085 11.4782 17.9905L11.4975 17.9712C11.3853 17.9441 11.2769 17.9441 11.1647 17.9248C10.3366 17.6887 9.22984 17.2746 8.71903 15.8776C8.68807 15.7964 8.71903 15.7538 8.80416 15.7693C9.19044 15.8212 9.58261 15.8094 9.96509 15.7345C9.83226 15.7081 9.70255 15.6679 9.57811 15.6145C9.06185 15.404 8.61071 15.0602 8.27078 14.6183C7.93084 14.1764 7.71429 13.6521 7.64323 13.0992C7.62544 12.9827 7.61896 12.8647 7.62388 12.747C7.62388 12.6657 7.66645 12.6425 7.73611 12.6851C8.10577 12.8746 8.5098 12.9878 8.92412 13.0179C8.78892 12.9144 8.65972 12.8033 8.53715 12.6851C7.63549 11.8299 7.28334 10.0885 8.00699 9.00107C8.06504 8.91594 8.10373 8.91594 8.17726 9.00107C9.82965 10.8857 11.8651 11.7641 14.3263 12.1278C14.3882 12.1278 14.396 12.1278 14.3844 12.0582C14.3127 11.6317 14.3245 11.1954 14.4192 10.7734C14.5303 10.3276 14.7376 9.91154 15.0267 9.55445C15.306 9.21194 15.6524 8.93013 16.0445 8.72632C16.4352 8.51996 16.8651 8.39862 17.306 8.3703C17.7589 8.33976 18.2128 8.41254 18.6334 8.58314C18.949 8.71197 19.2417 8.891 19.5002 9.1133C19.5568 9.16228 19.6099 9.2153 19.6589 9.27196C19.6759 9.28606 19.6966 9.29501 19.7185 9.29775C19.7404 9.3005 19.7627 9.29692 19.7827 9.28744C20.4047 9.134 21.0052 8.90392 21.5705 8.60249C21.5833 8.59684 21.5972 8.59392 21.6111 8.59392C21.6251 8.59392 21.639 8.59684 21.6518 8.60249C21.6789 8.62184 21.6711 8.65667 21.6518 8.68375C21.546 9.0168 21.3779 9.32671 21.1565 9.59702C21.0133 9.77503 20.6611 10.2123 20.4212 10.2549C20.9444 10.1751 21.4554 10.0295 21.942 9.82147C22.0039 9.79438 22.031 9.78277 22.031 9.82147L22.0349 9.84468Z" fill="#F6F6F6"/>
</g>
<defs>
<clipPath id="clip0_929_1505">
<rect width="29" height="29" fill="white" transform="translate(0.046875)"/>
</clipPath>
</defs>
</svg>
