<svg width="36" height="36" viewBox="0 0 36 36" fill="none" xmlns="http://www.w3.org/2000/svg">
<circle cx="18" cy="18" r="18" fill="#010101"/>
<g clip-path="url(#clip0_909_671)">
<path d="M21.3154 13.6113C21.0266 12.7734 20.4432 12.0518 19.6605 11.5644C18.8778 11.077 17.942 10.8523 17.0056 10.9272C16.3043 10.9645 15.6288 11.1884 15.0585 11.5726C14.4883 11.9569 14.0468 12.4855 13.7859 13.0966C13.5554 13.7854 13.61 14.5302 13.9388 15.183C14.2676 15.8358 14.8465 16.3488 15.5605 16.62C17.183 17.3405 17.538 17.1267 19.414 17.7681C19.7873 17.8769 20.1323 18.0572 20.4273 18.2976C20.7223 18.538 20.9607 18.8332 21.1276 19.1644C21.2944 19.4957 21.386 19.8557 21.3965 20.2219C21.407 20.588 21.3362 20.9522 21.1887 21.2914C20.9224 21.9033 20.4744 22.4307 19.8976 22.8111C19.3209 23.1914 18.6398 23.4087 17.9352 23.4371C16.9925 23.5157 16.0495 23.2901 15.2625 22.7975C14.4755 22.305 13.8919 21.5752 13.6084 20.7292" stroke="white" stroke-width="1.5" stroke-miterlimit="10"/>
<path d="M17.5039 7V10.8163" stroke="white" stroke-width="1.5" stroke-miterlimit="10"/>
<path d="M17.5039 23.5717V27" stroke="white" stroke-width="1.5" stroke-miterlimit="10"/>
</g>
<defs>
<clipPath id="clip0_909_671">
<rect width="9" height="20" fill="white" transform="translate(13 7)"/>
</clipPath>
</defs>
</svg>
