<svg width="30" height="30" viewBox="0 0 30 29" fill="none" xmlns="http://www.w3.org/2000/svg">
<g opacity="0.7" clip-path="url(#clip0_929_1509)">
<path d="M15.906 15.0533H13.9401C13.9042 15.0533 13.8698 15.0676 13.8444 15.093C13.819 15.1184 13.8047 15.1529 13.8047 15.1888V16.3497C13.8047 16.3856 13.819 16.4201 13.8444 16.4455C13.8698 16.4709 13.9042 16.4852 13.9401 16.4852H15.9176C15.9926 16.4857 16.067 16.4713 16.1365 16.443C16.2059 16.4146 16.2691 16.3728 16.3223 16.3199C16.3756 16.267 16.4178 16.2042 16.4466 16.1349C16.4755 16.0656 16.4903 15.9913 16.4903 15.9163V15.6377C16.4919 15.5605 16.4779 15.4838 16.449 15.4122C16.4202 15.3406 16.3773 15.2755 16.3227 15.221C16.2681 15.1664 16.2031 15.1234 16.1314 15.0946C16.0598 15.0658 15.9831 15.0518 15.906 15.0533Z" fill="#F6F6F6"/>
<path d="M13.9401 13.7026H15.7202C15.8967 13.7026 16.066 13.6325 16.1909 13.5077C16.3157 13.3829 16.3858 13.2136 16.3858 13.037V12.9209C16.3863 12.8332 16.3695 12.7462 16.3363 12.665C16.303 12.5838 16.2541 12.51 16.1922 12.4478C16.1304 12.3856 16.0568 12.3362 15.9758 12.3025C15.8948 12.2688 15.808 12.2515 15.7202 12.2515H13.9401C13.9042 12.2515 13.8698 12.2657 13.8444 12.2911C13.819 12.3165 13.8047 12.351 13.8047 12.3869V13.5672C13.8047 13.6031 13.819 13.6376 13.8444 13.663C13.8698 13.6884 13.9042 13.7026 13.9401 13.7026Z" fill="#F6F6F6"/>
<path d="M14.8955 0C12.0277 0 9.22427 0.850411 6.83975 2.44369C4.45524 4.03697 2.59673 6.30157 1.49926 8.9511C0.40179 11.6006 0.114642 14.5161 0.674128 17.3288C1.23361 20.1416 2.61461 22.7252 4.64247 24.7531C6.67033 26.7809 9.25399 28.1619 12.0667 28.7214C14.8794 29.2809 17.7949 28.9937 20.4444 27.8963C23.094 26.7988 25.3586 24.9403 26.9518 22.5558C28.5451 20.1713 29.3955 17.3678 29.3955 14.5C29.3914 10.6556 27.8624 6.96987 25.1441 4.25148C22.4257 1.53309 18.7399 0.0040974 14.8955 0V0ZM14.9691 21.7713C13.752 21.7662 12.5553 21.459 11.4863 20.8774L7.46171 21.9532L8.52202 17.9673C7.74388 16.5552 7.45146 14.9265 7.68977 13.332C7.92808 11.7374 8.68391 10.2654 9.8409 9.14249C10.9979 8.01962 12.4919 7.30817 14.0929 7.11769C15.6939 6.9272 17.3131 7.26824 18.7013 8.08828C20.0894 8.90833 21.1695 10.1619 21.7753 11.6561C22.3812 13.1502 22.479 14.8021 22.054 16.3573C21.6289 17.9125 20.7044 19.2849 19.4228 20.2632C18.1412 21.2415 16.5736 21.7714 14.9613 21.7713H14.9691Z" fill="#F6F6F6"/>
<path d="M14.9695 8.43996C13.9099 8.43714 12.8688 8.71704 11.9535 9.25079C11.0382 9.78454 10.2819 10.5528 9.76253 11.4764C9.24319 12.3999 8.97963 13.4453 8.99905 14.5047C9.01847 15.564 9.32016 16.5991 9.87301 17.503L10.0278 17.7584L9.42798 19.9835L11.6686 19.3837L11.9201 19.5346C12.7096 20.0046 13.5969 20.2859 14.513 20.3566C15.429 20.4273 16.3491 20.2856 17.2013 19.9424C18.0536 19.5992 18.8151 19.0639 19.4265 18.378C20.0379 17.6922 20.4827 16.8745 20.7262 15.9886C20.9697 15.1027 21.0054 14.1725 20.8303 13.2705C20.6553 12.3686 20.2744 11.5192 19.7173 10.7886C19.1601 10.058 18.4418 9.466 17.6183 9.05861C16.7947 8.65123 15.8883 8.43951 14.9695 8.43996ZM17.7751 16.5046C17.3339 17.8009 16.3742 17.8009 16.3742 17.8009H12.8063C12.7273 17.8009 12.6515 17.7695 12.5956 17.7137C12.5397 17.6578 12.5083 17.582 12.5083 17.503V11.2223C12.5093 11.1436 12.541 11.0684 12.5967 11.0127C12.6524 10.9571 12.7276 10.9254 12.8063 10.9244H16.3742C16.3742 10.9244 17.8912 11.6248 17.6861 13.0024C17.6861 13.0024 17.748 13.9079 17.2565 14.3104C17.5382 14.5919 17.7359 14.9463 17.8275 15.3338C17.9191 15.7214 17.9009 16.1268 17.7751 16.5046Z" fill="#F6F6F6"/>
</g>
<defs>
<clipPath id="clip0_929_1509">
<rect width="29" height="29" fill="white" transform="translate(0.395508)"/>
</clipPath>
</defs>
</svg>
