<svg width="10" height="10" viewBox="0 0 5 5" fill="none" xmlns="http://www.w3.org/2000/svg">
    <path d="M2.49995 5C1.11928 5 0 3.88072 0 2.49995C0 1.11917 1.11928 0 2.49995 0C3.88062 0 5 1.11928 5 2.49995C5 3.88062 3.88072 5 2.49995 5ZM2.49995 4.49993C3.60455 4.49993 4.49993 3.60455 4.49993 2.49995C4.49993 1.39535 3.60455 0.499969 2.49995 0.499969C1.39535 0.499969 0.499969 1.39545 0.499969 2.49995C0.499969 3.60445 1.39545 4.49993 2.49995 4.49993Z" fill="#FF0000" />
    <path d="M3.62194 1.89467C3.61073 1.95021 3.57618 1.99036 3.53735 2.02909C3.13189 2.43381 2.72673 2.83886 2.32187 3.24426C2.26725 3.29899 2.20366 3.32294 2.12886 3.29664C2.10082 3.28638 2.07531 3.27022 2.05406 3.24926C1.84697 3.04415 1.64068 2.83815 1.43516 2.63127C1.352 2.54771 1.35903 2.42745 1.44932 2.35734C1.51984 2.30231 1.61921 2.3123 1.68942 2.38231C1.84827 2.54081 2.00687 2.69949 2.16524 2.85833C2.17216 2.86678 2.17843 2.87574 2.18399 2.88513C2.18976 2.87625 2.19609 2.86774 2.20295 2.85965C2.57125 2.49101 2.93962 2.12251 3.30806 1.75414C3.36146 1.70073 3.42342 1.67831 3.4974 1.70145C3.56201 1.72183 3.60054 1.76728 3.61745 1.8321C3.61868 1.83689 3.62041 1.84168 3.62194 1.84647V1.89467Z" fill="#FF0000" />
</svg>