<?xml version="1.0" encoding="utf-8"?>
<!-- Generator: Adobe Illustrator 24.0.1, SVG Export Plug-In . SVG Version: 6.00 Build 0)  -->
<svg version="1.1" id="Capa_1" xmlns="http://www.w3.org/2000/svg" xmlns:xlink="http://www.w3.org/1999/xlink" x="0px" y="0px"
	 viewBox="0 0 523.6 523.6" style="enable-background:new 0 0 523.6 523.6;" xml:space="preserve">
<style type="text/css">
	.st0{fill:#0029FD;}
</style>
<title>Colibri</title>
<g id="Capa_2_1_">
	<g id="Capa_1-2">
		<path class="st0" d="M523.6,136v23.5c-2.6,11.1-6.5,21.7-13.2,31.2c-12.8,17.9-29.8,30.7-48.7,41.2
			c-35.8,19.9-74.5,31.1-114.9,37.1c-7.1,1-14.3,1.9-20.5,2.6c2,18.7,5.1,36.7,5.6,54.8c2,62.4-14.4,119.6-49.1,171.8
			c-5.8,8.6-11.9,16.9-17.9,25.4h-1c-3.4-3-6.8-6.1-10.3-9c-51.9-43.4-63.4-113.2-28.1-170.8c0.5-0.8,0.9-1.7,1.2-2.4
			c-9-1.3-17.8-2.2-26.4-3.9C130.6,324.3,80.4,253.8,90.5,184c5.8-39.7-16.4-76.3-53.6-86.3C25.1,94.6,12.3,95.2,0,94.1V63.4
			c30.8,0,61.7,0,92.5,0.2c3,0,4-1.1,4.9-3.8c8.5-24.5,30.4-41.1,55.3-41.4C183.9,18,207.1,32,222.5,59c5.5,9.8,10.7,19.7,16.1,29.8
			c1.7-0.6,3.1-1,4.5-1.6c58-22.7,116-45.3,173.9-68c16.1-6.3,32.2-12.8,48.3-19.3h1c1.4,3.7,2.7,7.3,4.2,10.9
			c7.5,17.5,7.6,35.4,2.4,53.4c-6.4,22-18.6,40.7-33.3,58c-3.8,4.5-7.8,8.8-12.5,14h6.5c23.2,0,46.3,0,69.5,0
			C510,136.3,516.8,136.1,523.6,136z M489.1,168.8l-1.3-1.8H219.6c-1.5,0-3.1,0-4.6,0.1c-13.6,0.9-21.2,12.4-16.8,25.3
			c5.2,15.9,16.6,29.1,31.5,36.6c14.9,7.8,31.1,11,47.7,12.2c45.7,3.3,90-4,132.9-19.5c22.7-8.2,44.4-18.6,62.5-34.9
			C478.8,181.4,483.7,174.9,489.1,168.8z M447,40.5l-193.7,75.7c3.2,5.9,6.1,11.1,8.7,16.4c1.4,2.8,3.2,3.8,6.3,3.8
			c36.1-0.1,72.2,0,108.3-0.2c2.3-0.1,4.5-0.9,6.4-2.3c7-5.7,14-11.5,20.4-17.8c15.8-15.5,29.6-32.5,37.6-53.5
			C443.5,56,444.8,48.8,447,40.5z M236,309.4c1.4-14,0.6-28.2-2.4-41.9c-0.4-2.7-2.2-4.9-4.8-5.7c-37.4-15-60.3-41.1-63.3-83
			c-11.7-6.6-31-10.6-42.6-8.7C104.6,265.9,179.6,314.9,236,309.4L236,309.4z M91.2,94.2c0.3,0.7,0.6,1.4,1,2
			c11,11.5,19.3,25.2,24.6,40.2c0.4,1.2,3,2.5,4.5,2.5c19-0.8,37.9,2.9,55.1,10.9c2.5,1.2,4.1,1.1,6.2-0.9
			c7.9-7.4,18.2-11.8,29-12.2c5.6-0.3,11.1,0,17.2,0c-0.2-0.9-0.5-1.9-0.9-2.8c-11.3-21-22.4-42.1-34-62.9
			c-5.8-10.4-15-17.1-26.4-20.4c-26.6-7.7-44.2,11-42.7,31.8c0.3,3.8,0,7.7,0,11.8L91.2,94.2z M259.7,477.6c1.5-2.5,2.8-4.5,4-6.5
			c24.7-41.3,37-86,37.5-134c0.3-20.3-2-40.5-6.7-60.2c-0.4-1.5-1.5-3.8-2.4-3.9c-8.7-0.8-17.5-1.3-25.3-1.8c0,19-0.4,37.5,0.2,56.1
			c0.3,9.3-2.3,16.3-8.5,23.6C227.7,386.8,228.5,443.4,259.7,477.6z"/>
	</g>
</g>
</svg>
