<?xml version="1.0" encoding="utf-8"?>
<!-- Generator: Adobe Illustrator 24.0.1, SVG Export Plug-In . SVG Version: 6.00 Build 0)  -->
<svg version="1.1" id="Capa_1" xmlns="http://www.w3.org/2000/svg" xmlns:xlink="http://www.w3.org/1999/xlink" x="0px" y="0px"
	 viewBox="0 0 573.6 523.6" style="enable-background:new 0 0 573.6 523.6;" xml:space="preserve">
<style type="text/css">
	.st0{fill:#0029FD;}
</style>
<title>Goal</title>
<g id="Capa_2_1_">
	<g id="Capa_1-2">
		<path class="st0" d="M0,154.2v-1.1c1.9-3.4,3.9-6.8,5.5-10.3c5.6-12.5,14.7-20.9,27.7-25.1c1.5-0.6,2.9-1.3,4.3-2.1
			c-8.5-19.1-1.7-35.4,8.7-51.4L109,96c4.9-5.3,9.3-10.4,14.1-15.2C185,19.3,259.3-8.4,346.4,2.2C404,9.2,453.9,33.8,495,74.8
			c59.3,59.1,84.9,131,77.2,214.1c-5.1,54.7-25.9,103.5-62.7,144.4c-66.8,74.2-150.2,102.8-248.4,85.3
			c-60.2-10.7-110.1-41.1-149.4-87.9c-47.6-56.5-67.2-122.1-60.4-195.6c1.6-17,4.8-33.9,7.3-51.5c-4.4-2.3-9.5-5-14.6-7.5
			C29.3,168.8,14.7,161.5,0,154.2z M90.9,199.3c-26.4,100.3,13.4,216.2,122.8,268.5c110.5,52.9,240.7,9.7,299-97.4
			c57.8-106.2,22.7-238.6-81.2-303s-226.6-32.2-292.9,46.5c10.3,11.4,15.4,24.8,14,40.4c0.1,1.2,0.7,2.4,1.7,3.1
			c4.1,2.4,8.4,4.6,12.5,6.8c57.9-83.4,166.2-97.9,241.7-47.5c74.3,49.7,99.2,146.9,57.6,226.7c-41.2,79-135.4,113.6-219.7,80.6
			c-81.4-32-136.7-130.9-95.9-230.3c-3.2-1.8-6.5-3.4-9.6-5.4c-2.8-1.8-4.7-1.6-7.4,0.6c-7,6-15.8,9.6-24.9,10.4
			C102.8,199.7,96.9,199.3,90.9,199.3L90.9,199.3z M251.1,210c31.8-34.5,77.6-34.6,107.9-12.1c35.4,26.2,42.9,76.1,16.7,111.4
			c-20.3,27.4-55.7,38.9-88.2,28.6c-18-5.6-33.4-17.6-43.3-33.7c-12.5-20.1-15.2-41.7-9-64.7L181.1,210
			c-24.9,57.2-6.1,139.5,65.8,177.1c70,36.5,155.6,8.5,191.2-62.1c35.2-69.9,6.1-155.6-64.8-189.9c-69.9-33.9-145-2.7-175.9,45.7
			L251.1,210z M266.3,256.5c-3.7,21,10.3,42.7,31.4,49.5c24.3,7.7,50.3-5.8,58-30.1c6.1-19.3-1.1-40.4-17.7-51.9
			c-17.3-11.9-42.8-10.6-55.3,3.1l37.1,20.3l-16,29.3L266.3,256.5z M77.5,136.6l-21.2,8.3c14.2,7.1,27.2,14.1,40.5,20.2
			c7.9,3.6,17-0.6,20.8-8.2s1.5-17.1-6.1-21.6c-7.2-4.3-14.8-7.8-22.3-11.6c-5.5-2.8-11.1-5.6-17.5-8.9L77.5,136.6z"/>
	</g>
</g>
</svg>
