<?xml version="1.0" encoding="utf-8"?>
<!-- Generator: Adobe Illustrator 24.0.1, SVG Export Plug-In . SVG Version: 6.00 Build 0)  -->
<svg version="1.1" id="Capa_1" xmlns="http://www.w3.org/2000/svg" xmlns:xlink="http://www.w3.org/1999/xlink" x="0px" y="0px"
	 viewBox="0 0 752 758" style="enable-background:new 0 0 752 758;" xml:space="preserve">
<style type="text/css">
	.st0{fill:#E4EA54;}
</style>
<g>
	<g>
		<path class="st0" d="M624.2,179.2h-87.9c-8.6,0-15.5,6.9-15.5,15.5v488.7c0,4.2,3.4,7.6,7.6,7.6h103.8c4.2,0,7.6-3.4,7.6-7.6
			V194.8C639.7,186.2,632.8,179.2,624.2,179.2z"/>
		<path class="st0" d="M447.2,345.3h-84c-9.7,0-17.5,7.8-17.5,17.5v320.6c0,4.2,3.4,7.6,7.6,7.6h103.8c4.2,0,7.6-3.4,7.6-7.6V362.8
			C464.7,353.2,456.8,345.3,447.2,345.3z"/>
		<g>
			<path class="st0" d="M158.5,520.1c-3.7,6.4-5.8,13.8-5.8,21.7V674c0,9.4,7.6,17,17,17h84.9c9.4,0,17-7.6,17-17V562.7L158.5,520.1
				z"/>
		</g>
	</g>
	<path d="M624.7,189c0-0.3,0-0.7-0.1-1c0,0,0-0.1,0-0.1c-0.1-0.4-0.2-0.8-0.3-1.3c0,0,0-0.1,0-0.1c0-0.1-0.1-0.1-0.1-0.2
		c-0.1-0.3-0.3-0.6-0.5-0.9c-0.1-0.1-0.1-0.2-0.2-0.3c-0.2-0.4-0.5-0.7-0.8-1c-0.1-0.1-0.2-0.1-0.2-0.2c-0.2-0.2-0.5-0.4-0.7-0.6
		c-0.1-0.1-0.2-0.2-0.3-0.2c-0.3-0.2-0.5-0.3-0.8-0.5c-0.1-0.1-0.2-0.1-0.3-0.2c0,0-0.1,0-0.1-0.1l-68.5-29.3c0,0-0.1,0-0.1,0
		c-0.3-0.1-0.5-0.2-0.8-0.2c-0.2-0.1-0.4-0.1-0.6-0.2c-0.2,0-0.4,0-0.6-0.1c-0.3,0-0.5-0.1-0.8-0.1c-0.2,0-0.4,0-0.6,0.1
		c-0.3,0-0.6,0-0.9,0.1c-0.2,0-0.3,0.1-0.5,0.1c-0.3,0.1-0.6,0.2-0.9,0.3c0,0-0.1,0-0.1,0l-68.5,29.3c0,0-0.1,0-0.1,0.1
		c-0.1,0-0.2,0.1-0.3,0.2c-0.3,0.1-0.6,0.3-0.8,0.5c-0.1,0.1-0.2,0.2-0.3,0.2c-0.3,0.2-0.5,0.4-0.7,0.6c-0.1,0.1-0.2,0.1-0.2,0.2
		c-0.3,0.3-0.5,0.6-0.8,1c-0.1,0.1-0.1,0.2-0.2,0.3c-0.2,0.3-0.3,0.6-0.5,0.9c0,0.1-0.1,0.1-0.1,0.2c0,0,0,0.1,0,0.1
		c-0.1,0.4-0.3,0.8-0.3,1.3c0,0,0,0.1,0,0.1c0,0.3-0.1,0.7-0.1,1v103.9c0,0.2,0,0.4,0.1,0.6c-0.5,3.3,1.4,6.7,4.6,7.9l67.7,25.8
		c0.8,0.3,1.7,0.5,2.6,0.5h1.6c0.9,0,1.8-0.2,2.6-0.5l67.6-25.8c0,0,0.1,0,0.1-0.1c0.3-0.1,0.5-0.2,0.8-0.4c0.2-0.1,0.4-0.2,0.5-0.3
		c0.2-0.1,0.4-0.3,0.6-0.4c0.2-0.1,0.4-0.3,0.5-0.5c0.2-0.2,0.3-0.3,0.4-0.5c0.2-0.2,0.3-0.4,0.5-0.6c0.1-0.2,0.2-0.4,0.4-0.6
		c0.1-0.2,0.2-0.4,0.3-0.6c0.1-0.2,0.2-0.4,0.2-0.7c0.1-0.2,0.2-0.5,0.2-0.7c0-0.2,0.1-0.4,0.1-0.6c0-0.3,0.1-0.6,0.1-0.9
		c0,0,0-0.1,0-0.1L624.7,189z M487.7,199.5l53.8,19.7v90.7l-53.8-20.5V199.5z M548.9,167.6l48.6,20.8l-46.8,17.1
		c-0.6-0.2-1.2-0.3-1.8-0.3c-0.6,0-1.3,0.1-1.8,0.3l-46.8-17.1L548.9,167.6z M556.2,219.2l53.8-19.7l0,89.9l-53.8,20.5V219.2z"/>
	<path d="M497.2,109.6h-37v-37c0-3.1-2.5-5.6-5.6-5.6s-5.6,2.5-5.6,5.6v37h-37c-3.1,0-5.6,2.5-5.6,5.6c0,3.1,2.5,5.6,5.6,5.6h37v37
		c0,3.1,2.5,5.6,5.6,5.6s5.6-2.5,5.6-5.6v-37h37c3.1,0,5.6-2.5,5.6-5.6C502.8,112.2,500.3,109.6,497.2,109.6z"/>
	<path d="M549.9,387c0-0.2,0-0.3,0-0.5c-0.1-0.6-0.2-1.2-0.4-1.8c0,0,0-0.1,0-0.1c0-0.1-0.1-0.2-0.1-0.3c-0.2-0.4-0.4-0.9-0.6-1.3
		c-0.1-0.2-0.2-0.4-0.3-0.5c-0.2-0.3-0.5-0.7-0.7-1c-0.1-0.2-0.3-0.3-0.4-0.5c-0.4-0.4-0.8-0.8-1.3-1.2c0,0-0.1-0.1-0.1-0.1
		c-0.4-0.3-0.9-0.6-1.4-0.8c-0.2-0.1-0.4-0.2-0.6-0.2c-0.2-0.1-0.5-0.2-0.7-0.3l-107.6-35.9V203.9c0-0.5,0-0.9-0.1-1.4
		c0,0,0-0.1,0-0.1c-0.1-0.6-0.3-1.2-0.4-1.7c0-0.1,0-0.1-0.1-0.2c0-0.1-0.1-0.2-0.1-0.3c-0.2-0.5-0.4-0.9-0.6-1.3
		c-0.1-0.1-0.1-0.3-0.2-0.4c-0.3-0.5-0.7-1-1.1-1.4c-0.1-0.1-0.2-0.2-0.3-0.3c-0.3-0.3-0.7-0.6-1-0.9c-0.1-0.1-0.3-0.2-0.4-0.3
		c-0.4-0.3-0.8-0.5-1.2-0.7c-0.1-0.1-0.3-0.1-0.4-0.2c-0.1,0-0.1-0.1-0.2-0.1l-94.3-40.4c-2.5-1.1-5.4-1.1-8,0l-94.3,40.4
		c-0.1,0-0.1,0.1-0.2,0.1c-0.1,0.1-0.3,0.1-0.4,0.2c-0.4,0.2-0.8,0.4-1.1,0.7c-0.2,0.1-0.3,0.2-0.4,0.3c-0.4,0.3-0.7,0.6-1,0.9
		c-0.1,0.1-0.2,0.2-0.3,0.3c-0.4,0.4-0.7,0.9-1.1,1.4c-0.1,0.1-0.1,0.3-0.2,0.4c-0.2,0.4-0.5,0.9-0.6,1.3c0,0.1-0.1,0.2-0.1,0.3
		c0,0.1,0,0.1-0.1,0.2c-0.2,0.6-0.4,1.1-0.4,1.7c0,0,0,0.1,0,0.1c-0.1,0.5-0.1,0.9-0.1,1.4v138.6l-107.6,35.9
		c-0.3,0.1-0.5,0.2-0.7,0.3c-0.2,0.1-0.4,0.1-0.5,0.2c-0.5,0.3-1,0.5-1.5,0.9c0,0,0,0-0.1,0c-0.5,0.4-0.9,0.8-1.3,1.2
		c-0.1,0.1-0.3,0.3-0.4,0.4c-0.3,0.3-0.5,0.6-0.7,1c-0.1,0.2-0.2,0.4-0.3,0.5c-0.2,0.4-0.4,0.8-0.6,1.3c0,0.1-0.1,0.2-0.1,0.3
		c0,0,0,0.1,0,0.1c-0.2,0.6-0.3,1.2-0.4,1.8c0,0.2,0,0.3,0,0.5c0,0.3-0.1,0.6-0.1,1v107.7c0,4.2,2.6,8,6.5,9.5l208.7,78.6
		c0.3,0.1,0.6,0.2,0.9,0.3c0.2,0.1,0.5,0.2,0.7,0.2c0.6,0.1,1.3,0.2,1.9,0.2c0.6,0,1.3-0.1,1.9-0.2c0.3,0,0.5-0.1,0.7-0.2
		c0.3-0.1,0.6-0.1,0.9-0.3l208.7-78.6c3.9-1.5,6.5-5.2,6.5-9.5V388C550,387.6,549.9,387.3,549.9,387z M341.2,245.5l74.1-27.1v123.8
		l-74.1,28.2V245.5z M331.1,174.5l66.9,28.7l-64.4,23.5c-0.8-0.2-1.7-0.4-2.5-0.4s-1.7,0.1-2.5,0.4l-64.4-23.5L331.1,174.5z
		 M246.9,218.4l74.1,27.1v124.9l-74.1-28.2V218.4z M237.6,360.2l88.8,33.8c1.1,0.4,2.4,0.7,3.6,0.7h2.2c1.2,0,2.4-0.2,3.6-0.7
		l88.8-33.8l84.2,28.1l-176.6,62.7c-0.4,0-0.7-0.1-1.1-0.1s-0.7,0.1-1.1,0.1l-176.6-62.7L237.6,360.2z M132.5,402.3L321,469.2v90.5
		l-188.5-71V402.3z M529.8,488.7l-188.5,71v-90.5l188.5-66.9V488.7z"/>
</g>
</svg>
