<?xml version="1.0" encoding="utf-8"?>
<!-- Generator: Adobe Illustrator 24.0.1, SVG Export Plug-In . SVG Version: 6.00 Build 0)  -->
<svg version="1.1" id="Capa_1" xmlns="http://www.w3.org/2000/svg" xmlns:xlink="http://www.w3.org/1999/xlink" x="0px" y="0px"
	 viewBox="0 0 752 758" style="enable-background:new 0 0 752 758;" xml:space="preserve">
<style type="text/css">
	.st0{fill:#AECEF4;}
</style>
<g>
	<g>
		<g>
			<g>
				<path class="st0" d="M678.1,144.4h-87.9c-8.6,0-15.5,6.9-15.5,15.5v488.7c0,4.2,3.4,7.6,7.6,7.6H686c4.2,0,7.6-3.4,7.6-7.6V160
					C693.6,151.4,686.7,144.4,678.1,144.4z"/>
			</g>
			<g>
				<path class="st0" d="M501,310.5h-84c-9.7,0-17.5,7.8-17.5,17.5v320.6c0,4.2,3.4,7.6,7.6,7.6h103.8c4.2,0,7.6-3.4,7.6-7.6V328
					C518.5,318.4,510.7,310.5,501,310.5z"/>
			</g>
			<g>
				<path class="st0" d="M299,456.4h-84c-9.7,0-17.5,7.8-17.5,17.5v174.7c0,4.2,3.4,7.6,7.6,7.6h103.8c4.2,0,7.6-3.4,7.6-7.6V473.9
					C316.5,464.3,308.7,456.4,299,456.4z"/>
			</g>
		</g>
	</g>
	<g>
		<path d="M274.9,343.9L382.8,385c1.3,0.5,2.7,0.8,4.2,0.8h2.6c1.4,0,2.8-0.3,4.2-0.8l107.8-41.1c0.1,0,0.1-0.1,0.2-0.1
			c0.4-0.2,0.8-0.4,1.2-0.6c0.3-0.2,0.6-0.3,0.9-0.5c0.3-0.2,0.6-0.5,0.9-0.7c0.3-0.2,0.6-0.5,0.9-0.7c0.3-0.2,0.5-0.5,0.7-0.8
			c0.3-0.3,0.5-0.6,0.7-0.9c0.2-0.3,0.4-0.7,0.6-1c0.2-0.3,0.4-0.6,0.5-1c0.1-0.3,0.2-0.7,0.4-1.1c0.1-0.4,0.3-0.7,0.3-1.1
			c0.1-0.3,0.1-0.6,0.1-1c0.1-0.5,0.1-0.9,0.1-1.4c0-0.1,0-0.1,0-0.2l0-168.2c0-0.6,0-1.1-0.1-1.6c0-0.1,0-0.1,0-0.2
			c-0.1-0.7-0.3-1.4-0.5-2c0-0.1,0-0.2-0.1-0.2c0-0.1-0.1-0.2-0.1-0.3c-0.2-0.5-0.5-1-0.7-1.5c-0.1-0.1-0.2-0.3-0.2-0.4
			c-0.4-0.6-0.8-1.1-1.2-1.6c-0.1-0.1-0.2-0.2-0.4-0.4c-0.4-0.4-0.8-0.7-1.2-1c-0.2-0.1-0.3-0.3-0.5-0.4c-0.4-0.3-0.9-0.5-1.3-0.8
			c-0.2-0.1-0.3-0.2-0.5-0.2c-0.1,0-0.1-0.1-0.2-0.1l-109.2-46.8c0,0-0.1,0-0.1,0c-0.4-0.2-0.8-0.3-1.2-0.4c-0.3-0.1-0.6-0.2-1-0.3
			c-0.3-0.1-0.7-0.1-1-0.1c-0.4,0-0.8-0.1-1.2-0.1c-0.3,0-0.6,0.1-0.9,0.1c-0.5,0-0.9,0.1-1.4,0.1c-0.3,0.1-0.5,0.2-0.8,0.2
			c-0.5,0.1-0.9,0.3-1.4,0.4c0,0-0.1,0-0.1,0L274.5,154c-0.1,0-0.1,0.1-0.2,0.1c-0.2,0.1-0.3,0.2-0.5,0.3c-0.4,0.2-0.9,0.5-1.3,0.8
			c-0.2,0.1-0.4,0.3-0.5,0.4c-0.4,0.3-0.8,0.7-1.2,1c-0.1,0.1-0.3,0.2-0.4,0.4c-0.5,0.5-0.9,1-1.2,1.6c-0.1,0.1-0.2,0.3-0.2,0.4
			c-0.3,0.5-0.5,1-0.7,1.5c0,0.1-0.1,0.2-0.1,0.3c0,0.1,0,0.2-0.1,0.2c-0.2,0.7-0.4,1.3-0.5,2c0,0,0,0.1,0,0.1
			c-0.1,0.5-0.1,1.1-0.1,1.6v165.6c0,0.3,0.1,0.6,0.1,0.9C266.7,336.6,269.7,341.9,274.9,343.9z M485.7,324.9L400,357.6V212.9
			l85.8-31.4L485.7,324.9z M388.3,130.7l77.5,33.2l-74.5,27.3c-0.9-0.2-1.9-0.4-2.9-0.4s-2,0.2-2.9,0.4l-74.5-27.3L388.3,130.7z
			 M290.8,181.5l85.8,31.4v144.7l-85.8-32.6V181.5z"/>
		<path d="M154.9,150.1c0-3.1-2.5-5.6-5.6-5.6h-37v-37c0-3.1-2.5-5.6-5.6-5.6c-3.1,0-5.6,2.5-5.6,5.6v37H64c-3.1,0-5.6,2.5-5.6,5.6
			c0,3.1,2.5,5.6,5.6,5.6h37v37c0,3.1,2.5,5.6,5.6,5.6c3.1,0,5.6-2.5,5.6-5.6v-37h37C152.4,155.7,154.9,153.1,154.9,150.1z"/>
		<path d="M572.1,338.3c-5.7-2.3-12.3,0.4-14.6,6.2c-2.3,5.7,0.4,12.3,6.2,14.6c22.8,9.2,47.3,26.3,45.9,36
			c-0.6,4.4-10.5,27.1-145.1,41.9c-6.2,0.7-10.6,6.2-9.9,12.4c0.6,5.7,5.5,10,11.1,10c0.4,0,0.8,0,1.2-0.1
			c54.9-6,96.3-14.2,123-24.2c26.1-9.8,39.8-21.9,41.9-36.9C636.3,366,582.9,342.7,572.1,338.3z"/>
		<path d="M423.8,440.4l-53.9-35.9c-5.2-3.4-12.1-2-15.6,3.1c-3.4,5.2-2,12.1,3.1,15.6l27.4,18.3c-23.5,0.6-49.4-2.8-49.8-2.8
			c-0.1,0-0.3,0-0.4,0c-148-14.7-158.9-38.7-159.6-43.4c-1.4-9.7,23.1-26.8,45.9-36c5.7-2.3,8.5-8.9,6.2-14.6
			c-2.3-5.7-8.9-8.5-14.6-6.2c-10.8,4.4-64.4,27.8-59.7,60c2.2,15.6,17,28,45.1,38c29.1,10.3,74.3,18.6,134.2,24.5
			c2.4,0.3,20.9,2.7,41.4,3l-16,10c-5.3,3.3-6.9,10.2-3.6,15.5c2.1,3.4,5.8,5.3,9.5,5.3c2,0,4.1-0.6,5.9-1.7l53.9-33.7
			c3.2-2,5.2-5.5,5.3-9.4C428.8,446.1,426.9,442.5,423.8,440.4z"/>
	</g>
</g>
</svg>
